<svg xmlns="http://www.w3.org/2000/svg" version="1.1" width="512" height="512">
<path d="M0 0 C0.81082031 0.71027344 1.62164062 1.42054688 2.45703125 2.15234375 C3.25753906 2.83167969 4.05804688 3.51101562 4.8828125 4.2109375 C9.87753177 8.51730891 14.33959721 13.00138375 18.45703125 18.15234375 C19.27945313 19.17585938 20.101875 20.199375 20.94921875 21.25390625 C32.8010488 36.4593842 41.37934694 53.56601721 46.45703125 72.15234375 C46.7715625 73.29316406 47.08609375 74.43398438 47.41015625 75.609375 C56.44447772 112.94237988 49.7348268 151.24701271 30.671875 184.2421875 C16.4896993 207.2761084 -3.041849 224.25405477 -26.54296875 237.15234375 C-27.3628125 237.61640625 -28.18265625 238.08046875 -29.02734375 238.55859375 C-47.92488303 248.7241666 -69.72649359 252.38453147 -90.91796875 252.40234375 C-91.63638947 252.40301849 -92.35481018 252.40369324 -93.09500122 252.40438843 C-103.88285768 252.38827749 -114.05365919 251.88485296 -124.54296875 249.15234375 C-125.21714844 248.98605469 -125.89132813 248.81976563 -126.5859375 248.6484375 C-162.52047912 239.68140771 -194.81462201 216.66711881 -213.96484375 184.78515625 C-233.73452036 150.66652082 -239.89453108 111.45799507 -230.32421875 73.05859375 C-220.52634637 36.69814775 -196.71484564 5.43336494 -164.26000977 -13.6574707 C-112.4568832 -43.29791425 -45.84248387 -39.10700648 0 0 Z M-106.54296875 3.15234375 C-106.54296875 12.72234375 -106.54296875 22.29234375 -106.54296875 32.15234375 C-110.50296875 32.64734375 -110.50296875 32.64734375 -114.54296875 33.15234375 C-125.89374397 37.21655994 -135.5068802 44.79446224 -141.29296875 55.4296875 C-147.23209079 68.3658377 -148.53511107 80.45017238 -143.8671875 94.01171875 C-137.70735917 108.62086913 -127.81445462 116.11637482 -113.54296875 122.15234375 C-109.73564705 123.09773201 -106.12694719 123.30052376 -102.2109375 123.36328125 C-100.99986328 123.39164062 -99.78878906 123.42 -98.54101562 123.44921875 C-96.01251365 123.50105887 -93.48384619 123.5454014 -90.95507812 123.58203125 C-75.81379511 123.96759177 -75.81379511 123.96759177 -70.16796875 129.46484375 C-67.10627878 134.52840793 -66.10993282 138.47023036 -67.0703125 144.265625 C-68.35260964 149.38421608 -71.32004161 152.19629475 -75.54296875 155.15234375 C-80.61791234 156.84399161 -85.91705256 156.42126735 -91.23046875 156.46484375 C-92.38998047 156.49384766 -93.54949219 156.52285156 -94.74414062 156.55273438 C-101.82226044 156.60504566 -106.60496163 156.13430147 -112.54296875 152.15234375 C-114.1640625 150.1875 -114.1640625 150.1875 -114.98046875 148.21484375 C-115.26792969 147.56644531 -115.55539063 146.91804687 -115.8515625 146.25 C-116.54296875 144.15234375 -116.54296875 144.15234375 -117.54296875 139.15234375 C-127.11296875 139.15234375 -136.68296875 139.15234375 -146.54296875 139.15234375 C-146.54296875 152.09407119 -142.33105966 163.26484629 -133.54296875 172.90234375 C-125.7571549 180.2270688 -117.06251667 183.83740026 -106.54296875 185.15234375 C-106.54296875 194.72234375 -106.54296875 204.29234375 -106.54296875 214.15234375 C-96.97296875 214.15234375 -87.40296875 214.15234375 -77.54296875 214.15234375 C-77.21296875 204.91234375 -76.88296875 195.67234375 -76.54296875 186.15234375 C-72.25296875 184.83234375 -67.96296875 183.51234375 -63.54296875 182.15234375 C-51.98056037 175.81166819 -44.70659838 168.3057647 -39.54296875 156.15234375 C-39.13046875 155.20359375 -38.71796875 154.25484375 -38.29296875 153.27734375 C-35.23469439 140.5345339 -36.74318725 127.93288232 -43.109375 116.390625 C-50.09894508 105.477754 -60.0873455 98.57948269 -72.54296875 95.15234375 C-76.75300881 94.3367882 -80.75782227 94.02005223 -85.04296875 93.9765625 C-86.25984375 93.95271484 -87.47671875 93.92886719 -88.73046875 93.90429688 C-91.27196436 93.86133102 -93.81368503 93.83007902 -96.35546875 93.81054688 C-107.82485786 93.54932668 -107.82485786 93.54932668 -112.54296875 89.15234375 C-116.32463482 84.84906856 -116.81347414 80.98742118 -116.77734375 75.44140625 C-116.45061652 72.25037031 -115.14743207 69.89330192 -113.54296875 67.15234375 C-113.54296875 66.49234375 -113.54296875 65.83234375 -113.54296875 65.15234375 C-106.2697568 61.23599886 -99.79429058 60.78724183 -91.66796875 60.77734375 C-90.61738281 60.75285156 -89.56679687 60.72835937 -88.484375 60.703125 C-82.02352425 60.67886649 -76.86573314 61.26385219 -71.54296875 65.15234375 C-67.86381516 69.50923616 -67.18558773 72.40317733 -65.54296875 78.15234375 C-55.97296875 78.15234375 -46.40296875 78.15234375 -36.54296875 78.15234375 C-38.71024478 62.98141156 -42.10564915 50.71863937 -54.2109375 40.7890625 C-61.96816307 35.34471156 -67.99944588 33.21273518 -77.54296875 32.15234375 C-77.54296875 22.58234375 -77.54296875 13.01234375 -77.54296875 3.15234375 C-87.11296875 3.15234375 -96.68296875 3.15234375 -106.54296875 3.15234375 Z " fill="#FEFBFB" transform="translate(256.54296875,240.84765625)"/>
<path d="M0 0 C30.13935267 25.03350838 49.16243906 59.57475179 52.86181641 98.7800293 C55.85243537 137.45069715 44.47281252 174.53391825 19.5 204.25 C-5.27221336 232.92297682 -39.88816142 251.51826052 -77.9375 254.375 C-82.23026859 254.57868132 -86.51516287 254.66470418 -90.8125 254.6875 C-91.82924805 254.69313965 -92.84599609 254.6987793 -93.89355469 254.70458984 C-104.25047976 254.60209763 -104.25047976 254.60209763 -107.9375 252.375 C-109.52300777 249.64247028 -110.39216526 246.76080517 -111.3125 243.75 C-111.90040306 242.00928788 -112.49559477 240.27102222 -113.09765625 238.53515625 C-113.39945801 237.66391113 -113.70125977 236.79266602 -114.01220703 235.89501953 C-120.09909822 219.31747578 -130.3290594 203.55712004 -141.9375 190.375 C-142.6903125 189.51261719 -143.443125 188.65023437 -144.21875 187.76171875 C-146.42755263 185.2692514 -148.6726813 182.81656499 -150.9375 180.375 C-151.51371094 179.73304688 -152.08992188 179.09109375 -152.68359375 178.4296875 C-168.82989365 161.24053082 -191.66811977 147.72123773 -213.953125 140.34375 C-215.00226074 139.99521973 -216.05139648 139.64668945 -217.13232422 139.28759766 C-219.22606665 138.60447119 -221.32670464 137.94207395 -223.43408203 137.30224609 C-224.87050049 136.83939209 -224.87050049 136.83939209 -226.3359375 136.3671875 C-227.19880371 136.10276855 -228.06166992 135.83834961 -228.95068359 135.56591797 C-230.9375 134.375 -230.9375 134.375 -231.70092773 131.99023438 C-231.77899658 131.12720703 -231.85706543 130.26417969 -231.9375 129.375 C-232.06511719 128.10914063 -232.19273437 126.84328125 -232.32421875 125.5390625 C-235.26334454 85.16546626 -223.38639885 47.59891769 -196.94287109 16.89990234 C-195.61580453 15.38450772 -194.27699611 13.87941906 -192.9375 12.375 C-192.30585938 11.65828125 -191.67421875 10.9415625 -191.0234375 10.203125 C-141.03820168 -43.08509998 -55.80303836 -42.47282326 0 0 Z M-105.9375 5.375 C-105.9375 15.275 -105.9375 25.175 -105.9375 35.375 C-116.8275 35.375 -127.7175 35.375 -138.9375 35.375 C-138.9375 85.205 -138.9375 135.035 -138.9375 186.375 C-128.0475 186.375 -117.1575 186.375 -105.9375 186.375 C-105.9375 196.275 -105.9375 206.175 -105.9375 216.375 C-96.3675 216.375 -86.7975 216.375 -76.9375 216.375 C-76.9375 206.475 -76.9375 196.575 -76.9375 186.375 C-73.6271875 186.2821875 -73.6271875 186.2821875 -70.25 186.1875 C-56.758558 185.45332211 -45.98313955 179.96796483 -36.75 170.1875 C-29.07576695 160.56798782 -25.39091161 149.43743559 -26.1328125 137.13671875 C-27.41485075 127.96431784 -30.80629411 120.98333976 -35.9375 113.375 C-36.71875 111.4609375 -36.71875 111.4609375 -36.9375 109.375 C-35.86328125 107.40234375 -35.86328125 107.40234375 -34.25 105.3125 C-27.49847265 95.7347519 -25.05754252 85.20130998 -26.4375 73.625 C-28.92767456 60.81132031 -35.64363092 50.6948964 -45.97265625 42.82421875 C-55.58326408 36.34708942 -65.44876779 35.375 -76.9375 35.375 C-76.9375 25.475 -76.9375 15.575 -76.9375 5.375 C-86.5075 5.375 -96.0775 5.375 -105.9375 5.375 Z " fill="#FEFBFB" transform="translate(436.9375,49.625)"/>
<path d="M0 0 C9.9 0 19.8 0 30 0 C30.09248183 7.80700749 30.17192688 15.61206797 30.21972656 23.41918945 C30.23739571 26.06795479 30.26684825 28.71582136 30.30175781 31.36450195 C30.49050112 46.06705012 30.64879409 59.93471467 26 74 C25.58403564 75.27605103 25.58403564 75.27605103 25.15966797 76.57788086 C16.73877331 99.96776215 -1.60602798 119.40615148 -23.75415039 130.2980957 C-34.78276143 135.41478903 -46.88463775 138.87728074 -59.0546875 139.31640625 C-60.05483887 139.35451416 -61.05499023 139.39262207 -62.08544922 139.43188477 C-63.33600098 139.47498779 -64.58655273 139.51809082 -65.875 139.5625 C-69.87625 139.706875 -73.8775 139.85125 -78 140 C-72.06 145.94 -66.12 151.88 -60 158 C-66.75 165.875 -66.75 165.875 -69.8671875 168.96484375 C-70.85332031 169.94614258 -70.85332031 169.94614258 -71.859375 170.94726562 C-72.52453125 171.60404297 -73.1896875 172.26082031 -73.875 172.9375 C-74.56335938 173.62134766 -75.25171875 174.30519531 -75.9609375 175.00976562 C-77.63833511 176.67551464 -79.31803791 178.3388622 -81 180 C-84.89395116 178.41600411 -87.51152235 175.75803057 -90.41113281 172.81591797 C-91.20204819 172.02544067 -91.20204819 172.02544067 -92.00894165 171.21899414 C-93.74512072 169.48142524 -95.474114 167.73688686 -97.203125 165.9921875 C-98.40766437 164.78391678 -99.61264697 163.57608778 -100.8180542 162.36868286 C-103.98548106 159.19362923 -107.14685513 156.01261478 -110.30700684 152.83032227 C-113.53437089 149.58247924 -116.76742228 146.34030867 -120 143.09765625 C-126.33891303 136.73731018 -132.67144624 130.37065247 -139 124 C-133.5664118 117.38927013 -127.53553957 111.40785804 -121.4765625 105.37890625 C-120.36390615 104.26811831 -119.25147284 103.1571069 -118.13925171 102.04588318 C-115.2316873 99.14211066 -112.32113095 96.24135564 -109.40991211 93.34124756 C-106.43159571 90.37321737 -103.45615894 87.40230338 -100.48046875 84.43164062 C-94.65643877 78.61828917 -88.8292405 72.80812666 -83 67 C-79.47655356 68.6586188 -77.20098122 70.56657308 -74.453125 73.3515625 C-73.60878906 74.20234375 -72.76445312 75.053125 -71.89453125 75.9296875 C-70.58548828 77.26386719 -70.58548828 77.26386719 -69.25 78.625 C-68.36183594 79.5221875 -67.47367187 80.419375 -66.55859375 81.34375 C-64.36783031 83.55807004 -62.18187237 85.77692435 -60 88 C-61.39347376 91.15204981 -63.02485079 93.26171773 -65.4765625 95.671875 C-66.146875 96.33574219 -66.8171875 96.99960937 -67.5078125 97.68359375 C-68.55582031 98.70646484 -68.55582031 98.70646484 -69.625 99.75 C-70.33140625 100.44738281 -71.0378125 101.14476562 -71.765625 101.86328125 C-73.50598703 103.58012488 -75.25084981 105.29211832 -77 107 C-55.81175271 107.95218202 -39.2421507 105.23980014 -22.3125 91.375 C-7.06629743 77.04190938 -1.27328501 57.82871457 -0.5635376 37.41593933 C-0.43637419 32.27755264 -0.36805229 27.1395863 -0.3125 22 C-0.27924493 19.85675107 -0.24474807 17.71352104 -0.20898438 15.5703125 C-0.12274987 10.38019828 -0.06189552 5.19068624 0 0 Z " fill="#FEFBFB" transform="translate(482,332)"/>
<path d="M0 0 C3.89395116 1.58399589 6.51152235 4.24196943 9.41113281 7.18408203 C9.93840973 7.71106689 10.46568665 8.23805176 11.00894165 8.78100586 C12.74512072 10.51857476 14.474114 12.26311314 16.203125 14.0078125 C17.40766437 15.21608322 18.61264697 16.42391222 19.8180542 17.63131714 C22.98548106 20.80637077 26.14685513 23.98738522 29.30700684 27.16967773 C32.53437089 30.41752076 35.76742228 33.65969133 39 36.90234375 C45.33891303 43.26268982 51.67144624 49.62934753 58 56 C52.5664118 62.61072987 46.53553957 68.59214196 40.4765625 74.62109375 C39.36390615 75.73188169 38.25147284 76.8428931 37.13925171 77.95411682 C34.2316873 80.85788934 31.32113095 83.75864436 28.40991211 86.65875244 C25.43159571 89.62678263 22.45615894 92.59769662 19.48046875 95.56835938 C13.65643877 101.38171083 7.8292405 107.19187334 2 113 C-1.52344644 111.3413812 -3.79901878 109.43342692 -6.546875 106.6484375 C-7.39121094 105.79765625 -8.23554687 104.946875 -9.10546875 104.0703125 C-10.41451172 102.73613281 -10.41451172 102.73613281 -11.75 101.375 C-12.63816406 100.4778125 -13.52632813 99.580625 -14.44140625 98.65625 C-16.63216969 96.44192996 -18.81812763 94.22307565 -21 92 C-19.60652624 88.84795019 -17.97514921 86.73828227 -15.5234375 84.328125 C-14.853125 83.66425781 -14.1828125 83.00039062 -13.4921875 82.31640625 C-12.44417969 81.29353516 -12.44417969 81.29353516 -11.375 80.25 C-10.66859375 79.55261719 -9.9621875 78.85523437 -9.234375 78.13671875 C-7.49401297 76.41987512 -5.74915019 74.70788168 -4 73 C-25.49952573 72.03382939 -42.09978224 74.91460465 -59.1875 89.0625 C-74.14065364 103.22231912 -79.72485235 122.20789459 -80.34074402 142.29594421 C-80.46563833 147.46776455 -80.54871425 152.63976988 -80.625 157.8125 C-80.6632587 159.96941545 -80.70231476 162.12631691 -80.7421875 164.28320312 C-80.8387933 169.52205528 -80.91903621 174.76079039 -81 180 C-90.9 180 -100.8 180 -111 180 C-111.09248183 172.19299251 -111.17192688 164.38793203 -111.21972656 156.58081055 C-111.23739571 153.93204521 -111.26684825 151.28417864 -111.30175781 148.63549805 C-111.49044465 133.93734847 -111.65944083 120.05920098 -107 106 C-106.71737305 105.14398193 -106.43474609 104.28796387 -106.14355469 103.40600586 C-97.55458531 79.92004135 -79.56020486 60.67685533 -57.24560547 49.70166016 C-46.21665396 44.58551826 -34.11553014 41.12272531 -21.9453125 40.68359375 C-20.44508545 40.62643188 -20.44508545 40.62643188 -18.91455078 40.56811523 C-17.03872314 40.50346069 -17.03872314 40.50346069 -15.125 40.4375 C-9.123125 40.2209375 -9.123125 40.2209375 -3 40 C-8.94 34.06 -14.88 28.12 -21 22 C-14.25 14.125 -14.25 14.125 -11.1328125 11.03515625 C-10.47539063 10.38095703 -9.81796875 9.72675781 -9.140625 9.05273438 C-8.47546875 8.39595703 -7.8103125 7.73917969 -7.125 7.0625 C-6.43664062 6.37865234 -5.74828125 5.69480469 -5.0390625 4.99023438 C-3.36166489 3.32448536 -1.68196209 1.6611378 0 0 Z " fill="#FEFBFB" transform="translate(111,0)"/>
<path d="M0 0 C5.83576204 -0.09214361 11.66897124 -0.17168646 17.50488281 -0.21972656 C19.48739199 -0.23976497 21.46984263 -0.26700353 23.45214844 -0.30175781 C26.31199641 -0.35061954 29.17105881 -0.37304673 32.03125 -0.390625 C32.90865845 -0.41127014 33.78606689 -0.43191528 34.69006348 -0.45318604 C40.58596055 -0.45530595 45.10287209 0.6030396 50 4 C53.57512699 8.12514653 54.90753746 11.54471032 55 17 C54.11480322 21.6218239 52.93686143 25.03848432 49.625 28.4375 C43.70634588 31.96050841 39.08208242 32.27343897 32.32421875 32.1953125 C30.93648003 32.19106766 30.93648003 32.19106766 29.52070618 32.18673706 C26.57617058 32.17557392 23.63194312 32.15047637 20.6875 32.125 C18.68685336 32.11496521 16.68620194 32.10584023 14.68554688 32.09765625 C9.79015139 32.07735183 4.89541917 32.03819573 0 32 C0 21.44 0 10.88 0 0 Z " fill="#FEFBFB" transform="translate(327,114)"/>
<path d="M0 0 C6.01443063 -0.06898455 12.02748072 -0.12868474 18.04199219 -0.16479492 C20.08663594 -0.17985288 22.13124755 -0.20030357 24.17578125 -0.22631836 C27.11987252 -0.26283311 30.06353557 -0.27975651 33.0078125 -0.29296875 C33.9174173 -0.30845261 34.82702209 -0.32393646 35.76419067 -0.33988953 C42.12366759 -0.34156427 46.47013969 0.61068749 51.25 5.125 C54.32154153 10.17110394 55.29346414 14.83570199 54.5 20.6875 C52.70004414 24.66240252 50.47269014 27.36676422 47 30 C44.19462697 30.93512434 42.51834636 31.12182907 39.62036133 31.11352539 C38.73967484 31.11344986 37.85898834 31.11337433 36.95161438 31.11329651 C36.00465195 31.10813522 35.05768951 31.10297394 34.08203125 31.09765625 C33.10965012 31.0962413 32.13726898 31.09482635 31.13542175 31.09336853 C28.02774996 31.08776817 24.92015004 31.07521562 21.8125 31.0625 C19.70638125 31.05748505 17.60026137 31.05292213 15.49414062 31.04882812 C10.32937707 31.03864925 5.16476906 31.01907383 0 31 C0 20.77 0 10.54 0 0 Z " fill="#FEFBFB" transform="translate(327,175)"/>
</svg>